<?xml version="1.0" encoding="UTF-8" standalone="no"?>
<!-- Created with Inkscape (http://www.inkscape.org/) -->

<svg
   xmlns:dc="http://purl.org/dc/elements/1.1/"
   xmlns:cc="http://creativecommons.org/ns#"
   xmlns:rdf="http://www.w3.org/1999/02/22-rdf-syntax-ns#"
   xmlns:svg="http://www.w3.org/2000/svg"
   xmlns="http://www.w3.org/2000/svg"
   xmlns:sodipodi="http://sodipodi.sourceforge.net/DTD/sodipodi-0.dtd"
   xmlns:inkscape="http://www.inkscape.org/namespaces/inkscape"
   width="156.27663mm"
   height="294.52765mm"
   viewBox="0 0 156.27663 294.52765"
   version="1.1"
   id="svg8"
   inkscape:version="0.92.3 (2405546, 2018-03-11)"
   sodipodi:docname="broadcast.svg">
  <defs
     id="defs2" />
  <sodipodi:namedview
     id="base"
     pagecolor="#ffffff"
     bordercolor="#666666"
     borderopacity="1.0"
     inkscape:pageopacity="0.0"
     inkscape:pageshadow="2"
     inkscape:zoom="0.98994949"
     inkscape:cx="705.77853"
     inkscape:cy="570.54545"
     inkscape:document-units="mm"
     inkscape:current-layer="layer1"
     showgrid="false"
     fit-margin-top="0"
     fit-margin-left="0"
     fit-margin-right="0"
     fit-margin-bottom="0"
     inkscape:window-width="3000"
     inkscape:window-height="1875"
     inkscape:window-x="-13"
     inkscape:window-y="-13"
     inkscape:window-maximized="1" />
  <metadata
     id="metadata5">
    <rdf:RDF>
      <cc:Work
         rdf:about="">
        <dc:format>image/svg+xml</dc:format>
        <dc:type
           rdf:resource="http://purl.org/dc/dcmitype/StillImage" />
        <dc:title></dc:title>
      </cc:Work>
    </rdf:RDF>
  </metadata>
  <g
     inkscape:label="Layer 1"
     inkscape:groupmode="layer"
     id="layer1"
     transform="translate(-26.554212,-1.8276852)">
    <path
       style="fill:#607d8b;stroke-width:0.27180311;fill-opacity:1"
       d="m 47.630582,296.05436 c -1.40127,-0.52933 -2.5119,-2.05868 -2.666962,-3.67243 -0.129881,-1.35168 0.435301,-3.76764 4.523932,-19.3382 1.489975,-5.67422 5.211085,-19.92675 7.80597,-29.89834 0.953097,-3.66255 2.403466,-9.22772 3.223039,-12.36705 0.81957,-3.13931 2.271938,-8.70449 3.22748,-12.36704 0.955543,-3.66254 2.50512,-9.59464 3.443504,-13.18245 0.938387,-3.58779 2.467974,-9.45874 3.399087,-13.04654 0.931114,-3.58781 2.204547,-8.48026 2.829852,-10.87213 0.625304,-2.39186 1.934735,-7.40664 2.909847,-11.14393 0.975113,-3.73729 2.488383,-9.48592 3.362822,-12.77475 0.87444,-3.28881 1.840501,-7.0193 2.146804,-8.28999 0.306303,-1.27068 0.936028,-3.7169 1.399396,-5.43606 0.463369,-1.71915 1.429599,-5.3885 2.147187,-8.15409 0.717588,-2.7656 2.310584,-8.88117 3.539987,-13.59016 1.229402,-4.70899 2.758247,-10.57993 3.39743,-13.04654 0.639194,-2.46662 1.971086,-7.58626 2.959753,-11.376979 l 1.797604,-6.892223 -1.526756,-1.669576 c -4.741212,-5.184766 -4.757577,-12.585535 -0.03904,-17.640241 2.221743,-2.380017 5.987792,-4.006865 9.275632,-4.006865 3.03823,0 6.68073,1.597325 8.98731,3.941145 4.81902,4.896835 4.85048,12.472974 0.0735,17.696562 l -1.51826,1.660183 1.78355,6.901611 c 2.38586,9.232293 3.94366,15.218463 4.94363,18.996863 0.45498,1.71916 1.46123,5.57196 2.23612,8.5618 1.45538,5.61548 3.88146,14.92287 6.2347,23.91868 1.98903,7.60352 4.92789,18.88395 6.3731,24.46227 0.69713,2.69085 1.80295,6.91059 2.45736,9.3772 0.65441,2.46662 1.88639,7.17562 2.73773,10.46443 0.85133,3.28881 2.32945,8.97629 3.28471,12.63884 0.95526,3.66255 2.46921,9.47234 3.36432,12.91065 0.89512,3.43831 2.30251,8.82002 3.12755,11.95933 0.82503,3.13933 2.27944,8.7045 3.23203,12.36705 1.96932,7.5717 4.80481,18.45189 7.40223,28.40343 5.17887,19.84189 5.24575,20.1293 4.94337,21.24315 -0.87161,3.21065 -4.35279,4.54713 -7.22319,2.77309 -0.49639,-0.30675 -1.08183,-0.90453 -1.301,-1.32838 -0.35883,-0.69389 -1.51348,-4.90343 -4.63728,-16.90628 l -1.04188,-4.00332 -45.26759,0.002 c -24.89717,0 -45.40275,0.09 -45.567952,0.1981 -0.392171,0.25679 -0.640031,1.06935 -2.257086,7.39945 -3.428418,13.42085 -3.578427,13.85422 -5.104369,14.74541 -1.10575,0.6458 -3.234936,0.83027 -4.419204,0.38294 z m 89.544918,-34.6015 c -2.84035,-1.42102 -8.40552,-4.15143 -12.36705,-6.06758 -3.96153,-1.91613 -10.1036,-4.90376 -13.64905,-6.63915 l -6.44628,-3.15525 -7.007973,3.41994 c -3.854398,1.88096 -9.331905,4.53786 -12.172242,5.90419 -2.840348,1.36633 -8.16089,3.97802 -11.823437,5.80375 l -6.659176,3.31951 h 37.644738 37.64472 l -5.16425,-2.58368 z m -73.03218,-1.49294 c 0.701885,-0.31948 5.067807,-2.438 9.70205,-4.70782 4.634243,-2.26983 10.810971,-5.27907 13.726061,-6.6872 2.91508,-1.4081 6.706734,-3.2506 8.425889,-4.09441 l 3.125735,-1.53422 -8.154095,-3.98018 c -4.484749,-2.1891 -10.844938,-5.30682 -14.133756,-6.92827 -3.857713,-1.90192 -6.038114,-2.83961 -6.144368,-2.64239 -0.09058,0.16814 -0.787074,2.69078 -1.547758,5.60587 -0.760681,2.91509 -2.07376,7.92985 -2.91795,11.14393 -1.497212,5.7003 -3.659587,14.16485 -3.659587,14.32532 0,0.16987 0.345554,0.0603 1.577779,-0.50063 z m 82.68119,0.46627 c 0,-0.1069 -0.86423,-3.45904 -5.27873,-20.47449 -1.89324,-7.29739 -2.81987,-10.70858 -2.93673,-10.81104 -0.041,-0.036 -2.88769,1.32205 -6.326,3.01776 -3.43831,1.69572 -9.79851,4.81161 -14.13378,6.92422 l -7.88228,3.8411 3.39754,1.6737 c 1.86865,0.92054 5.6603,2.76592 8.4259,4.10083 4.72028,2.27841 15.52923,7.54645 21.58425,10.51971 2.53684,1.24567 3.14983,1.48081 3.14983,1.20821 z m -40.38908,-21.06138 c 4.86245,-2.32023 22.46835,-10.88167 23.40138,-11.37967 l 1.08721,-0.58031 -26.22899,0.005 -26.229007,0.006 3.53344,1.77004 c 1.943393,0.97353 7.630874,3.73538 12.638843,6.13745 5.007983,2.40207 9.221604,4.47211 9.363624,4.60007 0.39288,0.35402 0.64158,0.29698 2.4335,-0.55807 z m 21.60481,-23.11894 c -1.25426,-0.88897 -3.1978,-2.27707 -4.319,-3.08468 -1.12119,-0.8076 -2.98713,-2.12775 -4.14657,-2.93364 -1.15942,-0.80589 -2.8849,-2.01565 -3.8344,-2.68837 -0.94949,-0.67271 -2.69173,-1.88642 -3.87162,-2.69714 -1.1799,-0.81073 -3.00668,-2.1077 -4.05953,-2.8822 -2.79335,-2.0548 -2.96801,-2.12812 -3.8591,-1.62014 -0.41245,0.23514 -1.11685,0.69923 -1.56532,1.03131 -0.81682,0.60483 -5.754554,4.09031 -8.384532,5.91852 -1.354395,0.94149 -6.036493,4.25488 -10.233985,7.24227 -1.121192,0.79797 -2.617303,1.84441 -3.324703,2.32542 -0.7074,0.48102 -1.288388,0.93573 -1.291087,1.01047 -0.0027,0.0748 11.509523,0.10405 25.582707,0.0652 l 25.58761,-0.0707 z m -50.848273,-3.00272 c 0.70073,-0.52536 4.148374,-2.96229 7.661425,-5.4154 3.513064,-2.45312 7.121249,-4.98776 8.018192,-5.63254 0.896955,-0.64478 2.949283,-2.09705 4.560735,-3.22729 1.611462,-1.13023 2.874611,-2.14447 2.806991,-2.25387 -0.10767,-0.1743 -5.139934,-3.76853 -9.224741,-6.58872 -0.772544,-0.53336 -2.910548,-2.03422 -4.751132,-3.33523 -1.840584,-1.30101 -3.470908,-2.39351 -3.622955,-2.42778 -0.152037,-0.0343 -0.801698,1.95584 -1.443689,4.42245 -0.641991,2.46661 -1.913934,7.35907 -2.826545,10.87212 -0.912609,3.51306 -2.194466,8.43246 -2.84857,10.93202 l -1.189281,4.54463 0.792758,-0.46759 c 0.436018,-0.25718 1.366083,-0.89744 2.066812,-1.4228 z m 57.533633,0.75135 c -0.17627,-0.85197 -1.72601,-6.821 -5.4161,-20.86088 -0.96262,-3.66255 -1.83262,-7.11919 -1.93333,-7.68145 -0.10074,-0.56224 -0.27277,-1.07767 -0.38236,-1.1454 -0.10954,-0.0677 -0.799,0.30867 -1.53205,0.83644 -0.73304,0.52776 -3.35094,2.37649 -5.81756,4.10829 -10.34116,7.2605 -10.64243,7.49072 -10.27079,7.84895 0.19248,0.18555 1.89607,1.41762 3.78572,2.73796 5.14791,3.59692 12.16835,8.53355 13.55195,9.52946 0.67271,0.48422 2.01813,1.42873 2.98983,2.09891 0.9717,0.67019 2.43944,1.70588 3.26164,2.30156 0.82221,0.59566 1.59637,1.08899 1.72036,1.09628 0.124,0.008 0.14321,-0.38427 0.0427,-0.87012 z m -28.91334,-20.94637 c 0.50671,-0.346 2.57249,-1.7937 4.59063,-3.21711 2.01814,-1.4234 4.46437,-3.13611 5.43606,-3.80604 0.9717,-0.66992 2.78166,-1.94364 4.02213,-2.83051 l 2.25541,-1.61249 -8.71074,-0.0717 c -4.7909,-0.0395 -12.63359,-0.0395 -17.428227,0 l -8.717501,0.0717 5.387918,3.78882 c 2.963349,2.08384 6.794486,4.79973 8.51364,6.03531 1.71916,1.23558 3.26157,2.25205 3.42757,2.25881 0.166,0.007 0.7164,-0.27079 1.22311,-0.61679 z m 15.19096,-21.23412 c 0,-0.0654 -0.94792,-1.27368 -2.10648,-2.68502 -1.15856,-1.41132 -2.9015,-3.56752 -3.8732,-4.79157 -0.9717,-1.22403 -2.50059,-3.1075 -3.39753,-4.18547 -0.89695,-1.07797 -2.77791,-3.39376 -4.17992,-5.14618 -1.40199,-1.75242 -2.65008,-3.18622 -2.77352,-3.18622 -0.12344,0 -0.62756,0.52275 -1.12026,1.16167 -0.49269,0.63893 -2.24123,2.79088 -3.885642,4.78213 -1.644416,1.99123 -3.234465,3.94978 -3.533446,4.35232 -0.298981,0.40254 -1.766721,2.2388 -3.261638,4.08057 -1.494916,1.84178 -3.127253,3.886 -3.627431,4.54271 l -0.909404,1.19402 h 16.334231 c 8.98383,0 16.33424,-0.0536 16.33424,-0.11896 z m -31.894035,-8.65856 c 0.703708,-0.92779 1.715822,-2.18908 2.249138,-2.80286 0.533305,-0.61378 1.581218,-1.87876 2.328676,-2.81107 0.747459,-0.93233 1.622483,-2.02018 1.944494,-2.41749 3.782767,-4.66712 5.801897,-7.22997 5.801897,-7.3643 0,-0.0897 -0.48925,-0.75515 -1.08721,-1.47877 -0.597973,-0.72363 -1.090687,-1.3941 -1.094921,-1.48994 -0.0044,-0.0958 -0.524056,-0.74029 -1.155155,-1.43211 -0.63111,-0.69181 -1.674481,-1.94551 -2.318591,-2.78598 -0.644121,-0.84047 -1.268335,-1.52813 -1.387136,-1.52813 -0.118789,0 -0.619738,1.55946 -1.113208,3.46549 -0.493459,1.90602 -1.610098,6.17265 -2.481416,9.48141 -2.760315,10.48212 -3.408088,13.12387 -3.184146,12.98546 0.119966,-0.0741 0.79387,-0.8939 1.497578,-1.82171 z m 32.132225,-0.93944 c -0.42236,-1.60704 -1.63873,-6.28545 -2.70303,-10.39646 -1.0643,-4.11103 -2.26544,-8.7323 -2.66921,-10.26948 l -0.73412,-2.79489 -0.56971,0.62046 c -1.03381,1.12592 -6.60867,8.19773 -6.60867,8.38322 0,0.19059 3.20289,4.21324 7.12863,8.95314 0.8048,0.9717 1.94574,2.39117 2.53542,3.15438 1.64585,2.13017 4.21114,5.27151 4.30483,5.27151 0.0461,0 -0.26178,-1.31484 -0.68414,-2.92188 z m -14.87243,-20.3541 c 0.79848,-0.99196 1.98273,-2.49027 2.63167,-3.3296 0.64894,-0.83932 1.49744,-1.86239 1.88552,-2.27349 l 0.70564,-0.74746 h -6.84275 -6.84276 l 3.2731,4.07704 c 1.80021,2.24238 3.37767,4.07705 3.50545,4.07705 0.1278,0 0.88565,-0.8116 1.68413,-1.80354 z m 5.2827,-16.47522 c -0.0955,-0.33636 -0.96712,-3.66934 -1.93694,-7.40663 -0.96981,-3.73729 -2.37612,-9.119 -3.12512,-11.95935 -0.749,-2.84033 -1.43582,-5.50061 -1.52627,-5.9117 -0.0905,-0.41111 -0.25304,-0.747462 -0.36129,-0.747462 -0.10823,0 -0.53043,1.314842 -0.93817,2.921872 -0.40775,1.60704 -1.21488,4.69541 -1.79363,6.86303 -0.57875,2.16763 -1.73532,6.632 -2.570165,9.92082 -0.834837,3.28882 -1.583285,6.19372 -1.66323,6.45533 -0.13587,0.44459 0.319371,0.47565 6.971545,0.47565 h 7.1169 z M 70.176028,150.36365 C 56.95836,143.7515 46.13579,133.98384 38.380665,121.66749 33.427451,113.80102 29.864041,104.95888 28.076844,96.09991 26.81662,89.853094 26.557097,87.21236 26.554257,80.607128 26.550738,72.537164 26.748955,70.468962 28.19853,63.446333 30.718019,51.240384 36.917234,38.778592 45.284163,29.10044 52.44337,20.819275 60.673614,14.498649 70.583732,9.6709927 76.875494,6.6059972 82.520108,4.6810496 89.20952,3.3191498 99.803813,1.1622595 112.18661,1.3536195 122.63404,3.835687 c 10.17172,2.4165689 20.36727,7.165592 28.50955,13.279577 1.41252,1.060655 3.06729,2.305013 3.67727,2.765247 1.63566,1.234121 7.93651,7.549303 9.87696,9.899435 6.9178,8.378321 12.06616,17.928844 15.09158,27.995721 0.82988,2.761406 2.18095,9.187888 2.68568,12.774746 0.2299,1.633845 0.3605,5.177436 0.35562,9.649011 -0.008,7.371482 -0.2669,10.112484 -1.51441,16.036388 -4.21638,20.021788 -16.26672,37.722118 -33.43644,49.113608 -4.37137,2.90025 -10.08618,5.95578 -10.45304,5.58892 -0.16785,-0.16784 -2.2902,-8.24489 -2.28898,-8.71117 5.4e-4,-0.18064 1.23859,-0.99825 2.75137,-1.8169 1.51277,-0.81866 3.36915,-1.95004 4.12528,-2.51418 0.75612,-0.56414 1.4611,-1.02572 1.56664,-1.02572 0.10558,0 1.33714,-0.87506 2.73689,-1.94458 11.83953,-9.04629 20.40762,-21.49395 24.46753,-35.546283 2.2868,-7.91514 2.78238,-11.891713 2.59923,-20.856331 -0.1627,-7.963379 -0.55952,-10.653742 -2.65931,-18.029478 -3.16228,-11.107807 -10.16384,-22.466459 -18.78266,-30.471191 -2.9353,-2.726172 -6.3664,-5.510564 -8.01965,-6.508105 -0.57189,-0.34506 -1.46787,-0.955647 -1.99109,-1.356859 -0.52323,-0.40121 -2.17443,-1.374967 -3.66935,-2.163897 -1.49491,-0.788934 -3.08496,-1.652479 -3.53344,-1.918995 -1.12471,-0.66838 -7.12385,-3.035258 -9.89912,-3.905555 -2.87901,-0.902835 -9.33846,-2.199667 -13.0471,-2.619408 C 107.631,11.079763 97.836287,11.364607 93.686999,12.075945 79.130535,14.571448 66.257804,21.177838 56.031633,31.40098 47.15197,40.278011 41.149522,50.827956 37.932731,63.211729 c -1.541936,5.936042 -2.001392,9.804667 -2.001392,16.851794 0,8.506374 0.948761,14.399707 3.636274,22.587127 0.72453,2.20726 3.683653,8.73401 4.978412,10.98056 0.43078,0.74746 1.022637,1.77309 1.315236,2.27919 1.142859,1.97675 4.931645,7.09092 7.121135,9.61224 5.151789,5.93256 12.058727,11.44083 19.028034,15.17482 1.344056,0.72012 2.242215,1.37203 2.242376,1.6276 1.49e-4,0.23447 -0.169361,1.02949 -0.376685,1.76672 -0.207323,0.73721 -0.711403,2.59408 -1.120178,4.12638 -0.408774,1.53229 -0.881281,2.77954 -1.050014,2.77166 -0.168733,-0.008 -0.857189,-0.28965 -1.529901,-0.62617 z m 4.635649,-22.41054 c -9.007645,-5.65866 -17.311674,-15.00314 -21.249356,-23.91177 -0.443874,-1.00422 -0.920415,-2.07049 -1.058983,-2.36947 -0.717185,-1.54746 -2.000166,-5.478928 -2.572274,-7.88229 C 47.881875,85.181161 47.723803,77.526143 49.415419,68.818636 51.44719,58.360213 56.727308,48.42882 64.329016,40.767598 c 3.760564,-3.790003 4.952448,-4.792623 8.836846,-7.433597 12.545211,-8.529397 27.744548,-11.582854 42.641838,-8.566495 11.13672,2.254933 20.83382,7.496009 28.84238,15.588722 9.88214,9.985959 15.25975,21.831859 16.35552,36.028219 0.8228,10.659847 -1.95334,22.552027 -7.4577,31.946603 -4.53885,7.74668 -10.95329,14.43123 -18.6259,19.41022 -1.51746,0.98473 -2.86534,1.79042 -2.99527,1.79042 -0.12993,0 -0.70118,-1.86525 -1.26942,-4.145 -0.56825,-2.27974 -1.1204,-4.38626 -1.22702,-4.68113 -0.16034,-0.4435 0.11627,-0.74345 1.60127,-1.73632 8.52784,-5.70172 15.24671,-14.63791 18.40826,-24.483192 1.81804,-5.66154 2.40532,-9.918463 2.19596,-15.917443 -0.17804,-5.101494 -0.6402,-7.87911 -2.07763,-12.486518 -2.34198,-7.506792 -6.56417,-14.378735 -12.06294,-19.633346 -4.30991,-4.118543 -8.4948,-6.967037 -13.63968,-9.284005 -9.25666,-4.168679 -19.24827,-5.148894 -29.716699,-2.915319 -7.88692,1.682779 -16.153753,6.280077 -22.442149,12.480389 -1.840491,1.81471 -3.729035,3.849874 -4.196767,4.522587 -2.635263,3.790142 -3.578672,5.328941 -4.993646,8.145148 -1.938267,3.857712 -3.468923,8.570216 -4.328802,13.327298 -0.478841,2.649066 -0.482105,12.550943 -0.0048,14.813269 1.843164,8.737726 4.377821,14.593742 9.058632,20.928842 0.928129,1.25615 4.251148,4.90284 5.550167,6.09077 1.327421,1.2139 4.204333,3.45785 6.734086,5.25248 0.486955,0.34546 0.462383,0.53361 -0.658228,5.04017 -0.640228,2.57473 -1.247009,4.68132 -1.348397,4.68132 -0.10139,0 -1.315108,-0.71036 -2.697159,-1.57858 z m 6.770631,-22.1485 C 74.223106,98.883992 70.583743,90.999844 70.243237,81.240142 c -0.350162,-10.036308 3.210467,-18.897737 10.438,-25.977327 5.194168,-5.087847 11.55188,-8.221014 19.178171,-9.451269 2.051362,-0.330917 8.705312,-0.247112 10.815282,0.136221 4.61623,0.838656 9.45791,2.84095 13.72607,5.676471 2.10016,1.395231 7.31344,6.611845 8.78726,8.792899 1.61533,2.390465 3.68272,6.628989 4.4786,9.181965 2.22657,7.142222 1.98332,16.260304 -0.60781,22.783083 -2.09965,5.28558 -5.22061,9.777385 -9.3671,13.481545 l -1.64983,1.47383 -0.61434,-2.01743 c -0.33789,-1.10959 -0.93929,-3.43441 -1.33647,-5.16624 l -0.72214,-3.148799 1.50542,-2.015463 c 4.89367,-6.551667 6.27363,-14.611874 3.82886,-22.363865 -2.28902,-7.258123 -7.54667,-12.970608 -14.66547,-15.934169 -5.42494,-2.258409 -13.32386,-2.254895 -18.651206,0.0084 -8.116679,3.448181 -13.581924,10.029483 -15.451677,18.60707 -0.195518,0.89695 -0.355485,3.0374 -0.355485,4.756554 0,5.676231 1.555195,10.400818 4.895634,14.872629 0.806088,1.079097 1.465606,2.125239 1.465606,2.324776 0,0.318206 -1.948705,8.247727 -2.33644,9.507257 -0.08051,0.26161 -0.229914,0.47013 -0.331964,0.4634 -0.102062,-0.007 -0.862499,-0.64888 -1.6899,-1.42697 z"
       id="path3726"
       inkscape:connector-curvature="0" />
    <path
       style="stroke-width:1.01015258;fill:#607d8b;fill-opacity:0"
       d="m 203.08758,386.90001 c -19.22473,-19.8988 -29.42478,-38.65955 -34.97073,-64.32096 -1.33533,-6.17864 -1.75895,-12.89367 -1.75634,-27.84057 0.003,-18.35416 0.19833,-20.44667 2.8603,-30.67246 6.61309,-25.40385 18.09188,-44.70852 37.6346,-63.29273 17.29954,-16.45104 39.19137,-27.74601 63.51497,-32.77019 11.481,-2.37146 41.98466,-2.13886 52.56034,0.4008 24.44399,5.87001 43.79452,16.2617 60.83525,32.66995 14.24126,13.7127 20.72573,22.37866 28.1761,37.65508 7.47126,15.31923 10.89128,27.31549 12.59279,44.17103 4.04015,40.02274 -9.30381,76.77087 -38.37695,105.68681 l -9.5522,9.50057 -1.37396,-3.94473 c -1.81672,-5.21593 -8.3594,-31.18886 -8.3594,-33.18491 0,-0.86009 1.99913,-4.27941 4.44252,-7.59852 21.02089,-28.55485 25.28126,-63.27865 11.68422,-95.23123 -9.91463,-23.29904 -32.24961,-44.28019 -55.70479,-52.32825 -10.95038,-3.75735 -19.03333,-4.99141 -32.64786,-4.9845 -25.98728,0.0132 -48.34564,9.28741 -66.74329,27.68506 -11.49057,11.49058 -18.18075,22.50087 -23.83711,39.22968 -2.6771,7.9176 -3.22879,11.26677 -3.64244,22.11232 -0.96366,25.26623 3.81451,42.01435 17.57954,61.61857 2.98515,4.25148 5.42273,8.79717 5.41685,10.10152 -0.0145,3.21994 -7.84789,34.37282 -8.9101,35.43502 -0.46632,0.46633 -5.60636,-4.07749 -11.42231,-10.09736 z"
       id="path3728"
       inkscape:connector-curvature="0"
       transform="matrix(0.26458333,0,0,0.26458333,26.554212,1.8276852)" />
    <path
       style="fill:#607d8b;fill-opacity:0;stroke-width:1.01015258"
       d="m 82.64722,1112.1169 c -6.441859,-0.7343 -12.658701,-8.4134 -12.658701,-15.6362 0,-5.1263 5.015745,-24.7441 68.841391,-269.25516 32.28794,-123.69259 63.61506,-243.76021 69.61583,-266.81694 6.00077,-23.05673 21.6232,-83.03073 34.71651,-133.27556 13.09331,-50.24481 23.80602,-91.47974 23.80602,-91.63315 0,-0.15342 -2.50905,-3.09088 -5.57567,-6.52771 -9.65695,-10.82274 -14.52666,-24.59294 -13.30888,-37.63385 2.72753,-29.20851 32.82836,-49.66024 60.44693,-41.07012 21.59856,6.71774 35.47016,26.50717 33.92623,48.39967 -0.85033,12.05747 -4.65212,20.2877 -15.07188,32.62802 l -3.72793,4.41508 2.92814,11.08101 c 1.61047,6.09457 20.87012,79.94817 42.79921,164.11914 21.92909,84.17096 61.72263,236.77903 88.4301,339.12905 60.76847,232.88072 62.87581,241.12852 62.95549,246.39922 0.0799,5.2869 -3.755,11.6133 -8.5829,14.1591 -4.53314,2.3904 -12.59453,2.2883 -16.96549,-0.2149 -2.11919,-1.2136 -4.37329,-3.7834 -5.72763,-6.5299 -1.22826,-2.4908 -6.3622,-20.2113 -11.40875,-39.379 -5.04655,-19.1676 -9.41384,-35.647 -9.70507,-36.6209 -0.50234,-1.6798 -9.3806,-1.7575 -172.93969,-1.5152 l -172.41017,0.2554 -1.21851,3.7194 c -0.67018,2.0457 -4.44845,16.1373 -8.39615,31.3147 -10.77446,41.4238 -11.95902,44.8123 -16.76644,47.9623 -2.867446,1.8788 -9.378114,3.0536 -14.00199,2.5265 z M 437.68405,991.24172 c 0,-0.64316 -52.92455,-27.04019 -103.22245,-51.48397 l -39.07776,-18.99102 -45.26998,21.99952 c -55.06293,26.75854 -97.29283,47.79959 -97.29283,48.47616 0,0.27573 64.09418,0.50133 142.43151,0.50133 78.33733,0 142.43151,-0.22591 142.43151,-0.50202 z m -264.1549,-30.33294 c 20.00103,-9.73673 50.65578,-24.65165 68.12168,-33.14427 17.4659,-8.49261 31.88647,-15.86792 32.04569,-16.38958 0.30244,-0.99085 -100.21456,-50.33933 -104.83324,-51.46752 -2.20428,-0.53845 -2.73125,-0.25438 -3.15915,1.70289 -0.28247,1.29203 -5.08438,19.62275 -10.67091,40.73494 -9.56128,36.13322 -19.38479,74.50572 -19.38479,75.72069 0,0.30021 0.34093,0.54586 0.75762,0.54591 0.41669,6e-5 17.12208,-7.96632 37.1231,-17.70306 z m 271.69494,-21.87455 c -14.84026,-57.35976 -20.66292,-79.00691 -21.46117,-79.78703 -0.39935,-0.39028 -23.83201,10.60544 -52.07259,24.43493 -28.24057,13.8295 -52.24409,25.42942 -53.34115,25.77761 -1.09706,0.3482 -1.83927,1.09924 -1.64935,1.669 0.32954,0.98863 123.64188,61.60691 133.10605,65.43269 2.50012,1.01065 4.68656,1.46279 4.85875,1.00475 0.17218,-0.45805 -4.07607,-17.79742 -9.44054,-38.53195 z M 316.37452,891.31806 c 10.88405,-5.23157 32.97169,-16.02758 49.08362,-23.99112 l 29.29442,-14.47918 -49.75001,-0.26205 c -27.36251,-0.14414 -72.13752,-0.14414 -99.50003,0 l -49.75001,0.26205 27.7792,13.61532 c 15.27855,7.48844 37.09785,18.25565 48.48732,23.92716 11.38947,5.6715 21.57621,10.34061 22.63721,10.3758 1.061,0.0352 10.83422,-4.21641 21.71828,-9.44798 z m 75.38938,-75.27324 c -0.32038,-0.51839 -10.46136,-7.94189 -22.53551,-16.49667 -61.9456,-43.88972 -71.29054,-50.24102 -73.92181,-50.24102 -1.89205,0 -16.1997,9.53964 -48.59247,32.3991 -25.25095,17.81951 -46.57646,33.04756 -47.38999,33.84011 -1.28121,1.24817 11.53501,1.44101 95.77157,1.44101 59.92455,0 97.02715,-0.36176 96.66821,-0.94253 z M 217.00551,781.71211 c 45.3984,-32.01133 59.5746,-42.21454 60.94285,-43.86318 1.49735,-1.80421 2.45468,-1.06105 -36.58113,-28.39744 -14.91394,-10.44409 -27.81251,-19.04529 -28.66348,-19.11377 -0.94329,-0.076 -2.1126,1.45265 -2.99571,3.91609 -1.20028,3.34821 -29.61289,111.15639 -29.61289,112.3625 0,0.84866 8.99299,-5.21909 36.91036,-24.9042 z m 177.85274,-35.94052 c -12.71424,-48.63209 -14.76056,-55.55167 -16.41431,-55.5045 -2.46479,0.0703 -63.76174,43.07326 -65.57178,46.00198 -0.38071,0.616 0.15846,1.94869 1.19814,2.96152 1.57577,1.53506 66.09585,47.15407 88.25841,62.40324 6.42607,4.42151 6.57119,4.46642 6.81028,2.10697 0.13436,-1.32594 -6.29196,-27.41209 -14.28074,-57.96921 z m -65.85966,-43.04055 c 17.55262,-12.28283 31.91386,-22.7379 31.91386,-23.23351 0,-0.51878 -27.89315,-0.90108 -65.74409,-0.90108 -40.13964,0 -65.61296,0.36619 -65.40738,0.94027 0.321,0.89637 8.1989,6.56627 46.64813,33.5737 9.35935,6.57417 17.84018,11.95305 18.84631,11.95305 1.00612,0 16.19055,-10.0496 33.74317,-22.33243 z m 27.87325,-60.46337 c 0,-1.65324 -59.44277,-74.9073 -61.27966,-75.51776 -1.35078,-0.44891 -61.95895,73.62657 -61.95895,75.7264 0,0.42064 27.72869,0.7648 61.61931,0.7648 38.85712,0 61.6193,-0.3596 61.6193,-0.97344 z M 240.49101,605.61293 c 5.03764,-6.25032 16.67941,-20.68288 25.87062,-32.07235 9.19119,-11.38947 16.72428,-21.20854 16.74018,-21.82017 0.0726,-2.79379 -26.02438,-34.37157 -27.30643,-33.0412 -0.87111,0.90395 -4.83215,15.43545 -17.04639,62.5366 -7.30049,28.1525 -8.9562,35.76133 -7.78177,35.76133 0.20044,0 4.48614,-5.11389 9.52379,-11.36421 z m 120.0786,9.59645 c -0.26345,-0.97228 -6.08212,-23.47342 -12.93039,-50.00256 -6.84827,-26.52913 -12.6864,-48.21797 -12.9736,-48.19743 -0.63486,0.0454 -11.57489,13.43771 -20.73728,25.38568 -5.64743,7.36437 -6.54704,9.06792 -5.66193,10.72177 0.57877,1.08144 9.13799,11.92243 19.0205,24.09108 9.88249,12.16864 21.10989,26.09481 24.94977,30.94702 6.76423,8.54754 9.32487,10.71531 8.33293,7.05444 z m -61.15365,-82.83251 c 1.95982,-2.08344 6.77579,-7.87919 10.70218,-12.87945 3.92639,-5.00025 8.09727,-9.95731 9.26863,-11.0157 1.17135,-1.05838 2.12973,-2.30844 2.12973,-2.77792 0,-0.46947 -11.84895,-0.85359 -26.33099,-0.85359 h -26.33099 l 4.85945,6.1853 c 9.61299,12.2358 20.56422,25.12943 21.34373,25.12943 0.43723,0 2.39845,-1.70463 4.35826,-3.78807 z m 23.1107,-63.41855 c 0,-0.64098 -22.66614,-87.55352 -24.82104,-95.1754 -1.61123,-5.69896 -2.83845,-6.65725 -3.88087,-3.03046 -3.58794,12.48317 -24.83618,95.27407 -24.83618,96.77085 0,1.90572 0.89401,1.97156 26.76904,1.97156 14.72298,0 26.76905,-0.24145 26.76905,-0.53655 z"
       id="path4535"
       inkscape:connector-curvature="0"
       transform="matrix(0.26458333,0,0,0.26458333,26.554212,1.8276852)" />
    <path
       style="fill:#607d8b;fill-opacity:0;stroke-width:1.01015258"
       d="m 82.64722,1112.1169 c -6.441859,-0.7343 -12.658701,-8.4134 -12.658701,-15.6362 0,-5.1263 5.015745,-24.7441 68.841391,-269.25516 32.28794,-123.69259 63.61506,-243.76021 69.61583,-266.81694 6.00077,-23.05673 21.6232,-83.03073 34.71651,-133.27556 13.09331,-50.24481 23.80602,-91.47974 23.80602,-91.63315 0,-0.15342 -2.50905,-3.09088 -5.57567,-6.52771 -9.65695,-10.82274 -14.52666,-24.59294 -13.30888,-37.63385 2.72753,-29.20851 32.82836,-49.66024 60.44693,-41.07012 21.59856,6.71774 35.47016,26.50717 33.92623,48.39967 -0.85033,12.05747 -4.65212,20.2877 -15.07188,32.62802 l -3.72793,4.41508 2.92814,11.08101 c 1.61047,6.09457 20.87012,79.94817 42.79921,164.11914 21.92909,84.17096 61.72263,236.77903 88.4301,339.12905 60.76847,232.88072 62.87581,241.12852 62.95549,246.39922 0.0799,5.2869 -3.755,11.6133 -8.5829,14.1591 -4.53314,2.3904 -12.59453,2.2883 -16.96549,-0.2149 -2.11919,-1.2136 -4.37329,-3.7834 -5.72763,-6.5299 -1.22826,-2.4908 -6.3622,-20.2113 -11.40875,-39.379 -5.04655,-19.1676 -9.41384,-35.647 -9.70507,-36.6209 -0.50234,-1.6798 -9.3806,-1.7575 -172.93969,-1.5152 l -172.41017,0.2554 -1.21851,3.7194 c -0.67018,2.0457 -4.44845,16.1373 -8.39615,31.3147 -10.77446,41.4238 -11.95902,44.8123 -16.76644,47.9623 -2.867446,1.8788 -9.378114,3.0536 -14.00199,2.5265 z M 437.68405,991.24172 c 0,-0.64316 -52.92455,-27.04019 -103.22245,-51.48397 l -39.07776,-18.99102 -45.26998,21.99952 c -55.06293,26.75854 -97.29283,47.79959 -97.29283,48.47616 0,0.27573 64.09418,0.50133 142.43151,0.50133 78.33733,0 142.43151,-0.22591 142.43151,-0.50202 z m -264.1549,-30.33294 c 20.00103,-9.73673 50.65578,-24.65165 68.12168,-33.14427 17.4659,-8.49261 31.88647,-15.86792 32.04569,-16.38958 0.30244,-0.99085 -100.21456,-50.33933 -104.83324,-51.46752 -2.20428,-0.53845 -2.73125,-0.25438 -3.15915,1.70289 -0.28247,1.29203 -5.08438,19.62275 -10.67091,40.73494 -9.56128,36.13322 -19.38479,74.50572 -19.38479,75.72069 0,0.30021 0.34093,0.54586 0.75762,0.54591 0.41669,6e-5 17.12208,-7.96632 37.1231,-17.70306 z m 271.69494,-21.87455 c -14.84026,-57.35976 -20.66292,-79.00691 -21.46117,-79.78703 -0.39935,-0.39028 -23.83201,10.60544 -52.07259,24.43493 -28.24057,13.8295 -52.24409,25.42942 -53.34115,25.77761 -1.09706,0.3482 -1.83927,1.09924 -1.64935,1.669 0.32954,0.98863 123.64188,61.60691 133.10605,65.43269 2.50012,1.01065 4.68656,1.46279 4.85875,1.00475 0.17218,-0.45805 -4.07607,-17.79742 -9.44054,-38.53195 z M 316.37452,891.31806 c 10.88405,-5.23157 32.97169,-16.02758 49.08362,-23.99112 l 29.29442,-14.47918 -49.75001,-0.26205 c -27.36251,-0.14414 -72.13752,-0.14414 -99.50003,0 l -49.75001,0.26205 27.7792,13.61532 c 15.27855,7.48844 37.09785,18.25565 48.48732,23.92716 11.38947,5.6715 21.57621,10.34061 22.63721,10.3758 1.061,0.0352 10.83422,-4.21641 21.71828,-9.44798 z m 75.38938,-75.27324 c -0.32038,-0.51839 -10.46136,-7.94189 -22.53551,-16.49667 -61.9456,-43.88972 -71.29054,-50.24102 -73.92181,-50.24102 -1.89205,0 -16.1997,9.53964 -48.59247,32.3991 -25.25095,17.81951 -46.57646,33.04756 -47.38999,33.84011 -1.28121,1.24817 11.53501,1.44101 95.77157,1.44101 59.92455,0 97.02715,-0.36176 96.66821,-0.94253 z M 217.00551,781.71211 c 45.3984,-32.01133 59.5746,-42.21454 60.94285,-43.86318 1.49735,-1.80421 2.45468,-1.06105 -36.58113,-28.39744 -14.91394,-10.44409 -27.81251,-19.04529 -28.66348,-19.11377 -0.94329,-0.076 -2.1126,1.45265 -2.99571,3.91609 -1.20028,3.34821 -29.61289,111.15639 -29.61289,112.3625 0,0.84866 8.99299,-5.21909 36.91036,-24.9042 z m 177.85274,-35.94052 c -12.71424,-48.63209 -14.76056,-55.55167 -16.41431,-55.5045 -2.46479,0.0703 -63.76174,43.07326 -65.57178,46.00198 -0.38071,0.616 0.15846,1.94869 1.19814,2.96152 1.57577,1.53506 66.09585,47.15407 88.25841,62.40324 6.42607,4.42151 6.57119,4.46642 6.81028,2.10697 0.13436,-1.32594 -6.29196,-27.41209 -14.28074,-57.96921 z m -65.85966,-43.04055 c 17.55262,-12.28283 31.91386,-22.7379 31.91386,-23.23351 0,-0.51878 -27.89315,-0.90108 -65.74409,-0.90108 -40.13964,0 -65.61296,0.36619 -65.40738,0.94027 0.321,0.89637 8.1989,6.56627 46.64813,33.5737 9.35935,6.57417 17.84018,11.95305 18.84631,11.95305 1.00612,0 16.19055,-10.0496 33.74317,-22.33243 z m 27.87325,-60.46337 c 0,-1.65324 -59.44277,-74.9073 -61.27966,-75.51776 -1.35078,-0.44891 -61.95895,73.62657 -61.95895,75.7264 0,0.42064 27.72869,0.7648 61.61931,0.7648 38.85712,0 61.6193,-0.3596 61.6193,-0.97344 z M 240.49101,605.61293 c 5.03764,-6.25032 16.67941,-20.68288 25.87062,-32.07235 9.19119,-11.38947 16.72428,-21.20854 16.74018,-21.82017 0.0726,-2.79379 -26.02438,-34.37157 -27.30643,-33.0412 -0.87111,0.90395 -4.83215,15.43545 -17.04639,62.5366 -7.30049,28.1525 -8.9562,35.76133 -7.78177,35.76133 0.20044,0 4.48614,-5.11389 9.52379,-11.36421 z m 120.0786,9.59645 c -0.26345,-0.97228 -6.08212,-23.47342 -12.93039,-50.00256 -6.84827,-26.52913 -12.6864,-48.21797 -12.9736,-48.19743 -0.63486,0.0454 -11.57489,13.43771 -20.73728,25.38568 -5.64743,7.36437 -6.54704,9.06792 -5.66193,10.72177 0.57877,1.08144 9.13799,11.92243 19.0205,24.09108 9.88249,12.16864 21.10989,26.09481 24.94977,30.94702 6.76423,8.54754 9.32487,10.71531 8.33293,7.05444 z m -61.15365,-82.83251 c 1.95982,-2.08344 6.77579,-7.87919 10.70218,-12.87945 3.92639,-5.00025 8.09727,-9.95731 9.26863,-11.0157 1.17135,-1.05838 2.12973,-2.30844 2.12973,-2.77792 0,-0.46947 -11.84895,-0.85359 -26.33099,-0.85359 h -26.33099 l 4.85945,6.1853 c 9.61299,12.2358 20.56422,25.12943 21.34373,25.12943 0.43723,0 2.39845,-1.70463 4.35826,-3.78807 z m 23.1107,-63.41855 c 0,-0.64098 -22.66614,-87.55352 -24.82104,-95.1754 -1.61123,-5.69896 -2.83845,-6.65725 -3.88087,-3.03046 -3.58794,12.48317 -24.83618,95.27407 -24.83618,96.77085 0,1.90572 0.89401,1.97156 26.76904,1.97156 14.72298,0 26.76905,-0.24145 26.76905,-0.53655 z"
       id="path4537"
       inkscape:connector-curvature="0"
       transform="matrix(0.26458333,0,0,0.26458333,26.554212,1.8276852)" />
  </g>
</svg>
